name C:\Users\u0101727\Documents\MyRepositories\upper-imu-dc\Results\main_tracking\Case_42\FLX01_angularVelocities_bodyFrame.mot
datacolumns 4
datarows 47
range 5.01000000 5.47000000
endheader 
time	radius_imu_x	radius_imu_y	radius_imu_z	
          5.01000000	          2.50949075	         -1.41893408	         -2.20479216	
          5.02000000	          2.50121779	         -1.52672549	         -2.28737526	
          5.03000000	          2.48736029	         -1.63800362	         -2.36922284	
          5.04000000	          2.47173440	         -1.74345363	         -2.44844690	
          5.05000000	          2.45139471	         -1.84365692	         -2.52580538	
          5.06000000	          2.42689111	         -1.93934347	         -2.60074861	
          5.07000000	          2.39794658	         -2.02894925	         -2.67285202	
          5.08000000	          2.36469966	         -2.11107664	         -2.74172360	
          5.09000000	          2.32739077	         -2.18431432	         -2.80702784	
          5.10000000	          2.28649030	         -2.24744308	         -2.86847649	
          5.11000000	          2.24267916	         -2.29972942	         -2.92584871	
          5.12000000	          2.19689864	         -2.34056354	         -2.97901032	
          5.13000000	          2.15034650	         -2.37142530	         -3.02792587	
          5.14000000	          2.10431205	         -2.38829388	         -3.07285605	
          5.15000000	          2.06479132	         -2.40669724	         -3.11233825	
          5.16000000	          2.03527391	         -2.44588756	         -3.14613992	
          5.17000000	          2.01423554	         -2.48178399	         -3.17174799	
          5.18000000	          1.99401813	         -2.50280306	         -3.19498079	
          5.19000000	          1.97559636	         -2.51817530	         -3.21438123	
          5.20000000	          1.95836699	         -2.52780770	         -3.22996143	
          5.21000000	          1.94217121	         -2.53398713	         -3.24161456	
          5.22000000	          1.92686154	         -2.53849450	         -3.24931752	
          5.23000000	          1.91236056	         -2.54318118	         -3.25306802	
          5.24000000	          1.89860049	         -2.54963383	         -3.25289721	
          5.25000000	          1.88551120	         -2.55910312	         -3.24886362	
          5.26000000	          1.87301131	         -2.57242917	         -3.24105124	
          5.27000000	          1.86101063	         -2.59004505	         -3.22956557	
          5.28000000	          1.84941726	         -2.61203553	         -3.21452930	
          5.29000000	          1.83814597	         -2.63823300	         -3.19607814	
          5.30000000	          1.82712480	         -2.66831998	         -3.17435765	
          5.31000000	          1.81629916	         -2.70191594	         -3.14952118	
          5.32000000	          1.80563371	         -2.73863954	         -3.12172903	
          5.33000000	          1.79511256	         -2.77814567	         -3.09114848	
          5.34000000	          1.78473809	         -2.82013829	         -3.05795462	
          5.35000000	          1.77452829	         -2.86436163	         -3.02233158	
          5.36000000	          1.76451285	         -2.91057698	         -2.98447344	
          5.37000000	          1.75472838	         -2.95853357	         -2.94458410	
          5.38000000	          1.74521294	         -3.00793859	         -2.90287606	
          5.39000000	          1.73600071	         -3.05842866	         -2.85956800	
          5.40000000	          1.72711754	         -3.10954520	         -2.81488159	
          5.41000000	          1.71857855	         -3.16071555	         -2.76903769	
          5.42000000	          1.71038798	         -3.21123961	         -2.72225235	
          5.43000000	          1.70254124	         -3.26028132	         -2.67473274	
          5.44000000	          1.69502852	         -3.30686664	         -2.62667342	
          5.45000000	          1.68783929	         -3.34989256	         -2.57825326	
          5.46000000	          1.68096667	         -3.38815004	         -2.52963348	
          5.47000000	          1.67441091	         -3.42036022	         -2.48095665	
